<svg width="32" height="32" viewBox="0 0 32 32" fill="none" xmlns="http://www.w3.org/2000/svg">
<path fill-rule="evenodd" clip-rule="evenodd" d="M16 0C14.62 0 12.314 0.53 10.144 1.12C7.924 1.72 5.686 2.43 4.37 2.86C3.81979 3.0417 3.33198 3.37493 2.96264 3.8214C2.59329 4.26787 2.35738 4.80948 2.282 5.384C1.09 14.338 3.856 20.974 7.212 25.364C8.63517 27.2419 10.3321 28.8957 12.246 30.27C13.018 30.816 13.734 31.234 14.342 31.52C14.902 31.784 15.504 32 16 32C16.496 32 17.096 31.784 17.658 31.52C18.391 31.1637 19.0922 30.7456 19.754 30.27C21.668 28.8957 23.3649 27.242 24.788 25.364C28.144 20.974 30.91 14.338 29.718 5.384C29.6428 4.8092 29.4069 4.26728 29.0376 3.82047C28.6682 3.37365 28.1804 3.04006 27.63 2.858C25.7196 2.23163 23.7944 1.65146 21.856 1.118C19.686 0.532 17.38 0 16 0ZM16 10C16.7085 9.99894 17.3945 10.2487 17.9365 10.7049C18.4785 11.1612 18.8415 11.7945 18.9613 12.4928C19.0811 13.1911 18.9498 13.9092 18.5909 14.52C18.2319 15.1308 17.6683 15.5949 17 15.83L17.77 19.81C17.798 19.9548 17.7937 20.1039 17.7573 20.2468C17.7209 20.3897 17.6534 20.5228 17.5595 20.6365C17.4657 20.7502 17.3478 20.8418 17.2145 20.9046C17.0811 20.9675 16.9354 21 16.788 21H15.212C15.0647 20.9997 14.9193 20.9669 14.7862 20.904C14.6531 20.841 14.5355 20.7494 14.4419 20.6357C14.3482 20.522 14.2809 20.3891 14.2446 20.2463C14.2083 20.1036 14.204 19.9546 14.232 19.81L15 15.83C14.3317 15.5949 13.7681 15.1308 13.4091 14.52C13.0502 13.9092 12.9189 13.1911 13.0387 12.4928C13.1585 11.7945 13.5215 11.1612 14.0635 10.7049C14.6055 10.2487 15.2915 9.99894 16 10Z" fill="#1C1E50"/>
</svg>
